<svg viewBox="0 0 492 100" fill="none" xmlns="http://www.w3.org/2000/svg">
<path d="M84.3749 6.25C81.6694 6.24884 79.0367 7.12583 76.8724 8.74915C74.7081 10.3725 73.1291 12.6544 72.3729 15.252C71.6166 17.8496 71.7239 20.6225 72.6786 23.1539C73.6333 25.6853 75.3838 27.8384 77.667 29.2896L69.5104 57.8379C69.2586 57.8227 69.0055 57.8125 68.7499 57.8125C66.061 57.8096 63.4436 58.6784 61.2903 60.2887L46.2211 47.7311C46.9346 45.6144 47.0678 43.3452 46.6069 41.1596C46.146 38.974 45.1079 36.9518 43.6006 35.3034C42.0932 33.655 40.1717 32.4406 38.0359 31.7865C35.9001 31.1325 33.6281 31.0627 31.4562 31.5844C29.2843 32.1061 27.2919 33.2003 25.6863 34.7531C24.0806 36.3059 22.9203 38.2605 22.3262 40.4137C21.732 42.567 21.7257 44.84 22.3079 46.9965C22.89 49.153 24.0394 51.1141 25.6364 52.6758L16.7903 70.3687C16.4061 70.333 16.018 70.3125 15.6249 70.3125C12.6303 70.3087 9.73355 71.3786 7.4605 73.3282C5.18746 75.2778 3.68875 77.9777 3.23641 80.938C2.78408 83.8982 3.4081 86.9225 4.99521 89.4619C6.58232 92.0013 9.02732 93.8875 11.8864 94.7782C14.7455 95.6688 17.8291 95.5048 20.5776 94.316C23.3261 93.1271 25.5573 90.9922 26.8661 88.2988C28.1749 85.6054 28.4747 82.5319 27.7109 79.6364C26.9472 76.7408 25.1706 74.2151 22.7036 72.5176L31.0629 55.801C33.0936 56.3612 35.233 56.3978 37.2816 55.9075C39.3302 55.4172 41.2212 54.4159 42.7782 52.9971L57.368 65.1557C56.3773 67.339 56.0353 69.7612 56.383 72.1334C56.7306 74.5057 57.7531 76.7279 59.3287 78.5352C60.9042 80.3424 62.9663 81.6584 65.2689 82.3263C67.5716 82.9941 70.0178 82.9857 72.3158 82.3019C74.6139 81.6181 76.6667 80.2878 78.2297 78.4697C79.7927 76.6516 80.7998 74.4223 81.131 72.0477C81.4622 69.6731 81.1035 67.2533 80.0977 65.0769C79.0918 62.9005 77.4813 61.0593 75.4581 59.7728L83.6143 31.2246C83.8661 31.2398 84.1192 31.25 84.3749 31.25C87.6901 31.25 90.8695 29.933 93.2137 27.5888C95.5579 25.2446 96.8749 22.0652 96.8749 18.75C96.8749 15.4348 95.5579 12.2554 93.2137 9.91117C90.8695 7.56696 87.6901 6.25 84.3749 6.25ZM15.6249 89.0625C14.3887 89.0625 13.1803 88.6959 12.1525 88.0092C11.1247 87.3224 10.3237 86.3463 9.85061 85.2043C9.37756 84.0622 9.25379 82.8056 9.49495 81.5932C9.7361 80.3808 10.3314 79.2672 11.2054 78.3931C12.0795 77.519 13.1932 76.9237 14.4055 76.6826C15.6179 76.4414 16.8746 76.5652 18.0166 77.0383C19.1587 77.5113 20.1348 78.3124 20.8215 79.3402C21.5083 80.368 21.8749 81.5764 21.8749 82.8125C21.873 84.4695 21.2139 86.0582 20.0422 87.2299C18.8705 88.4016 17.2819 89.0606 15.6249 89.0625ZM34.3749 50C33.1387 50 31.9303 49.6334 30.9025 48.9467C29.8747 48.2599 29.0737 47.2838 28.6006 46.1418C28.1276 44.9997 28.0038 43.7431 28.2449 42.5307C28.4861 41.3183 29.0814 40.2047 29.9554 39.3306C30.8295 38.4565 31.9432 37.8612 33.1555 37.6201C34.3679 37.3789 35.6246 37.5027 36.7666 37.9758C37.9087 38.4488 38.8848 39.2499 39.5715 40.2777C40.2583 41.3055 40.6249 42.5139 40.6249 43.75C40.623 45.407 39.9639 46.9957 38.7922 48.1674C37.6205 49.3391 36.0319 49.9981 34.3749 50ZM68.7499 76.5625C67.5137 76.5625 66.3053 76.1959 65.2775 75.5092C64.2497 74.8224 63.4487 73.8463 62.9756 72.7043C62.5026 71.5622 62.3788 70.3056 62.6199 69.0932C62.8611 67.8808 63.4564 66.7672 64.3304 65.8931C65.2045 65.019 66.3182 64.4237 67.5305 64.1826C68.7429 63.9414 69.9996 64.0652 71.1416 64.5383C72.2837 65.0113 73.2598 65.8124 73.9465 66.8402C74.6333 67.868 74.9999 69.0764 74.9999 70.3125C74.998 71.9695 74.3389 73.5582 73.1672 74.7299C71.9955 75.9016 70.4069 76.5606 68.7499 76.5625ZM84.3749 25C83.1387 25 81.9303 24.6334 80.9025 23.9467C79.8747 23.2599 79.0737 22.2838 78.6006 21.1418C78.1276 19.9997 78.0038 18.7431 78.2449 17.5307C78.4861 16.3183 79.0814 15.2047 79.9554 14.3306C80.8295 13.4565 81.9432 12.8613 83.1555 12.6201C84.3679 12.3789 85.6246 12.5027 86.7666 12.9758C87.9087 13.4488 88.8848 14.2499 89.5715 15.2777C90.2583 16.3055 90.6249 17.5139 90.6249 18.75C90.623 20.407 89.9639 21.9957 88.7922 23.1674C87.6205 24.3391 86.0319 24.9981 84.3749 25Z" fill="#4315F2"/>
<path d="M121.75 41.1875C121.75 40.0208 122.146 39.0417 122.938 38.25C123.771 37.4167 124.771 37 125.938 37H162.312C163.479 37 164.479 37.3958 165.312 38.1875C166.104 39.0208 166.5 40.0208 166.5 41.1875C166.5 42.3542 166.083 43.3542 165.25 44.1875C164.458 44.9792 163.479 45.375 162.312 45.375H148.375V70.6875C148.125 73.1875 146.75 74.5417 144.25 74.75C143.083 74.75 142.062 74.375 141.188 73.625C140.354 72.8333 139.938 71.8542 139.938 70.6875V45.375H125.938C124.771 45.375 123.792 44.9583 123 44.125C122.167 43.3333 121.75 42.3542 121.75 41.1875ZM174.375 53.375C175.167 51.375 176.5 49.5833 178.375 48C180.292 46.375 182.708 45.5417 185.625 45.5H209.125C210.292 45.5 211.271 45.9167 212.062 46.75C212.896 47.5417 213.312 48.5208 213.312 49.6875C213.312 50.8542 212.896 51.8542 212.062 52.6875C211.271 53.4792 210.292 53.875 209.125 53.875H185.375C184.583 53.875 183.896 54.2083 183.312 54.875C182.729 55.5 182.271 56.25 181.938 57.125C181.646 58 181.5 58.8333 181.5 59.625V70.5625C181.25 73.0625 179.875 74.4167 177.375 74.625C176.208 74.625 175.188 74.25 174.312 73.5C173.479 72.7083 173.062 71.7292 173.062 70.5625V59.6875H173.125C173.125 57.5208 173.542 55.4167 174.375 53.375ZM232.312 73.875C228.646 73.75 225.875 72.8958 224 71.3125C222.125 69.6875 220.771 67.875 219.938 65.875C219.104 63.8333 218.688 61.7708 218.688 59.6875C218.688 57.5208 219.083 55.4375 219.875 53.4375C220.708 51.3958 222.062 49.5833 223.938 48C225.854 46.375 228.271 45.5417 231.188 45.5H254.938C256.104 45.5 257.083 45.8958 257.875 46.6875C258.708 47.4375 259.125 48.3542 259.125 49.4375C259.125 50.5625 258.708 51.5208 257.875 52.3125C257.083 53.0625 256.104 53.4375 254.938 53.4375H231.562C230.646 53.4375 229.833 53.75 229.125 54.375C228.458 55 227.958 55.8125 227.625 56.8125C227.333 57.8125 227.188 58.7917 227.188 59.75C227.188 60.7917 227.333 61.8125 227.625 62.8125C227.958 63.8125 228.458 64.625 229.125 65.25C229.833 65.8333 230.646 66.1458 231.562 66.1875H254.938C256.104 66.1875 257.083 66.5625 257.875 67.3125C258.708 68.0625 259.125 68.9583 259.125 70C259.125 71.0833 258.708 72 257.875 72.75C257.083 73.5 256.104 73.875 254.938 73.875H232.312ZM258.375 59.5625C258.375 60.3542 258.021 61.0417 257.312 61.625C256.688 62.1667 255.896 62.4375 254.938 62.4375H234.5C233.542 62.4375 232.729 62.1667 232.062 61.625C231.396 61.0417 231.062 60.3542 231.062 59.5625C231.062 58.8125 231.396 58.1458 232.062 57.5625C232.729 57.0208 233.542 56.75 234.5 56.75H254.938C255.896 56.75 256.708 57.0417 257.375 57.625C258.042 58.1667 258.375 58.8125 258.375 59.5625ZM279.125 73.875C275.458 73.75 272.688 72.8958 270.812 71.3125C268.938 69.6875 267.583 67.875 266.75 65.875C265.917 63.8333 265.5 61.7708 265.5 59.6875C265.5 57.5208 265.896 55.4375 266.688 53.4375C267.521 51.3958 268.875 49.5833 270.75 48C272.667 46.375 275.083 45.5417 278 45.5H301.75C302.917 45.5 303.896 45.8958 304.688 46.6875C305.521 47.4375 305.938 48.3542 305.938 49.4375C305.938 50.5625 305.521 51.5208 304.688 52.3125C303.896 53.0625 302.917 53.4375 301.75 53.4375H278.375C277.458 53.4375 276.646 53.75 275.938 54.375C275.271 55 274.771 55.8125 274.438 56.8125C274.146 57.8125 274 58.7917 274 59.75C274 60.7917 274.146 61.8125 274.438 62.8125C274.771 63.8125 275.271 64.625 275.938 65.25C276.646 65.8333 277.458 66.1458 278.375 66.1875H301.75C302.917 66.1875 303.896 66.5625 304.688 67.3125C305.521 68.0625 305.938 68.9583 305.938 70C305.938 71.0833 305.521 72 304.688 72.75C303.896 73.5 302.917 73.875 301.75 73.875H279.125ZM305.188 59.5625C305.188 60.3542 304.833 61.0417 304.125 61.625C303.5 62.1667 302.708 62.4375 301.75 62.4375H281.312C280.354 62.4375 279.542 62.1667 278.875 61.625C278.208 61.0417 277.875 60.3542 277.875 59.5625C277.875 58.8125 278.208 58.1458 278.875 57.5625C279.542 57.0208 280.354 56.75 281.312 56.75H301.75C302.708 56.75 303.521 57.0417 304.188 57.625C304.854 58.1667 305.188 58.8125 305.188 59.5625ZM359.188 64.1875C359.188 63.0208 359.583 62.0417 360.375 61.25C361.208 60.4167 362.208 60 363.375 60H372.938L371.312 55.375C370.646 53.6667 369.979 52.0625 369.312 50.5625C368.688 49.0208 367.958 47.625 367.125 46.375C366.375 45.125 365.521 44.4583 364.562 44.375C363.562 44.4583 362.667 45.125 361.875 46.375C361.083 47.625 360.354 49.0208 359.688 50.5625C359.062 52.0625 358.417 53.6667 357.75 55.375L351.812 71.625C351.396 72.5 350.854 73.2292 350.188 73.8125C349.562 74.3542 348.604 74.625 347.312 74.625C346.104 74.625 345.104 74.2083 344.312 73.375C343.562 72.5417 343.229 71.5417 343.312 70.375C343.354 69.8333 343.479 69.3333 343.688 68.875L350.562 51.125C352.479 46.4583 354.396 42.6875 356.312 39.8125C358.188 36.9792 360.938 35.5417 364.562 35.5C368.146 35.5417 370.875 36.9792 372.75 39.8125C374.667 42.6042 376.583 46.375 378.5 51.125L385.375 68.875C385.583 69.3333 385.708 69.8333 385.75 70.375C385.833 71.5417 385.479 72.5417 384.688 73.375C383.938 74.2083 382.958 74.625 381.75 74.625C380.375 74.625 379.354 74.3542 378.688 73.8125C378.062 73.2292 377.542 72.5 377.125 71.625L375.938 68.375H363.375C362.208 68.375 361.229 67.9583 360.438 67.125C359.604 66.3333 359.188 65.3542 359.188 64.1875ZM400.438 79.3125C400.188 81.8125 398.812 83.1667 396.312 83.375C395.146 83.375 394.125 82.9792 393.25 82.1875C392.417 81.4375 392 80.4792 392 79.3125V49.5625C392.042 48.3958 392.479 47.4375 393.312 46.6875C394.146 45.8958 395.146 45.5 396.312 45.5H422.562C426.229 45.625 429 46.5 430.875 48.125C432.75 49.7083 434.104 51.5208 434.938 53.5625C435.771 55.5625 436.188 57.6042 436.188 59.6875C436.188 61.8542 435.771 63.9583 434.938 66C434.146 68 432.792 69.8125 430.875 71.4375C429 73.0208 426.604 73.8333 423.688 73.875H407.938C406.771 73.875 405.792 73.4583 405 72.625C404.167 71.8333 403.75 70.8542 403.75 69.6875C403.75 68.5208 404.146 67.5417 404.938 66.75C405.771 65.9167 406.771 65.5 407.938 65.5H423.938C424.729 65.5 425.417 65.1875 426 64.5625C426.583 63.8958 427 63.1458 427.25 62.3125C427.542 61.4375 427.688 60.5833 427.688 59.75C427.688 58.875 427.542 58.0208 427.25 57.1875C427 56.3125 426.583 55.5625 426 54.9375C425.417 54.2708 424.729 53.9167 423.938 53.875H402.062C400.979 53.9167 400.438 54.4583 400.438 55.5V79.3125ZM452.25 79.3125C452 81.8125 450.625 83.1667 448.125 83.375C446.958 83.375 445.938 82.9792 445.062 82.1875C444.229 81.4375 443.812 80.4792 443.812 79.3125V49.5625C443.854 48.3958 444.292 47.4375 445.125 46.6875C445.958 45.8958 446.958 45.5 448.125 45.5H474.375C478.042 45.625 480.812 46.5 482.688 48.125C484.562 49.7083 485.917 51.5208 486.75 53.5625C487.583 55.5625 488 57.6042 488 59.6875C488 61.8542 487.583 63.9583 486.75 66C485.958 68 484.604 69.8125 482.688 71.4375C480.812 73.0208 478.417 73.8333 475.5 73.875H459.75C458.583 73.875 457.604 73.4583 456.812 72.625C455.979 71.8333 455.562 70.8542 455.562 69.6875C455.562 68.5208 455.958 67.5417 456.75 66.75C457.583 65.9167 458.583 65.5 459.75 65.5H475.75C476.542 65.5 477.229 65.1875 477.812 64.5625C478.396 63.8958 478.812 63.1458 479.062 62.3125C479.354 61.4375 479.5 60.5833 479.5 59.75C479.5 58.875 479.354 58.0208 479.062 57.1875C478.812 56.3125 478.396 55.5625 477.812 54.9375C477.229 54.2708 476.542 53.9167 475.75 53.875H453.875C452.792 53.9167 452.25 54.4583 452.25 55.5V79.3125Z" fill="black"/>
</svg>
